<?xml version="1.0" encoding="UTF-8"?>
<svg xmlns="http://www.w3.org/2000/svg" xmlns:xlink="http://www.w3.org/1999/xlink" width="56.25pt" height="37.499999pt" viewBox="0 0 56.25 37.499999" version="1.2">
<defs>
<clipPath id="clip1">
  <path d="M 0 9.136719 L 55.511719 9.136719 L 55.511719 27.410156 L 0 27.410156 Z M 0 9.136719 "/>
</clipPath>
</defs>
<g id="surface1">
<g clip-path="url(#clip1)" clip-rule="nonzero">
<path style=" stroke:none;fill-rule:nonzero;fill:rgb(93.328857%,14.898682%,20.779419%);fill-opacity:1;" d="M 47.949219 13.628906 L 47.640625 13.628906 C 47.539062 13.628906 47.457031 13.695312 47.394531 13.824219 C 47.328125 13.953125 47.261719 14.308594 47.195312 14.882812 C 47.160156 15.136719 47.109375 15.292969 47.042969 15.359375 C 46.976562 15.421875 46.839844 15.453125 46.636719 15.453125 C 46.441406 15.453125 46.3125 15.429688 46.257812 15.382812 C 46.199219 15.339844 46.171875 15.246094 46.171875 15.109375 C 46.171875 15.03125 46.175781 14.949219 46.179688 14.871094 L 46.261719 13.324219 C 46.269531 13.140625 46.300781 13.023438 46.355469 12.96875 C 46.410156 12.910156 46.546875 12.882812 46.765625 12.882812 L 51.761719 12.882812 C 51.90625 12.882812 51.996094 12.902344 52.027344 12.9375 C 52.058594 12.972656 52.085938 13.101562 52.101562 13.324219 L 52.21875 14.691406 C 52.226562 14.796875 52.230469 14.90625 52.230469 15.015625 C 52.230469 15.148438 52.214844 15.25 52.179688 15.320312 C 52.148438 15.390625 52.039062 15.429688 51.855469 15.429688 C 51.625 15.429688 51.476562 15.40625 51.410156 15.363281 C 51.34375 15.316406 51.292969 15.179688 51.25 14.941406 C 51.179688 14.558594 51.097656 14.242188 51.011719 13.996094 C 50.925781 13.75 50.820312 13.628906 50.691406 13.628906 L 50.488281 13.628906 L 50.488281 22.15625 C 50.488281 22.398438 50.597656 22.566406 50.816406 22.660156 C 50.90625 22.699219 50.964844 22.746094 50.996094 22.804688 C 51.027344 22.859375 51.039062 22.976562 51.039062 23.152344 C 51.039062 23.378906 51.019531 23.507812 50.980469 23.546875 C 50.9375 23.585938 50.84375 23.601562 50.699219 23.601562 L 47.699219 23.601562 C 47.578125 23.601562 47.503906 23.582031 47.46875 23.535156 C 47.433594 23.492188 47.417969 23.367188 47.417969 23.160156 C 47.417969 22.910156 47.488281 22.761719 47.632812 22.707031 C 47.769531 22.652344 47.855469 22.601562 47.894531 22.550781 C 47.929688 22.5 47.949219 22.414062 47.949219 22.289062 Z M 40.308594 12.882812 L 43.257812 12.882812 C 43.359375 12.882812 43.421875 12.90625 43.449219 12.949219 C 43.476562 12.988281 43.488281 13.117188 43.488281 13.335938 C 43.488281 13.554688 43.425781 13.695312 43.292969 13.765625 C 43.191406 13.820312 43.125 13.875 43.089844 13.933594 C 43.058594 13.992188 43.039062 14.101562 43.039062 14.265625 L 43.039062 21.710938 C 43.039062 21.914062 43.097656 22.078125 43.21875 22.207031 C 43.335938 22.332031 43.484375 22.394531 43.667969 22.394531 C 43.835938 22.394531 43.976562 22.324219 44.097656 22.183594 C 44.214844 22.039062 44.273438 21.882812 44.273438 21.710938 L 44.273438 14.273438 C 44.273438 14.144531 44.261719 14.054688 44.234375 14.003906 C 44.210938 13.953125 44.148438 13.890625 44.046875 13.8125 C 43.894531 13.699219 43.816406 13.519531 43.816406 13.277344 C 43.816406 13.089844 43.839844 12.980469 43.882812 12.941406 C 43.925781 12.902344 43.988281 12.882812 44.066406 12.882812 L 45.539062 12.882812 C 45.703125 12.882812 45.785156 12.964844 45.785156 13.125 L 45.785156 13.441406 C 45.785156 13.582031 45.773438 13.671875 45.757812 13.710938 C 45.738281 13.75 45.6875 13.78125 45.601562 13.8125 C 45.386719 13.886719 45.28125 14.027344 45.28125 14.246094 L 45.28125 21.492188 C 45.28125 22.179688 45.078125 22.722656 44.675781 23.121094 C 44.269531 23.523438 43.707031 23.722656 42.984375 23.722656 C 42.179688 23.722656 41.5625 23.511719 41.136719 23.085938 C 40.710938 22.660156 40.5 22.046875 40.5 21.246094 L 40.5 14.246094 C 40.5 14.058594 40.402344 13.921875 40.203125 13.832031 C 40.101562 13.789062 40.042969 13.75 40.019531 13.710938 C 40 13.671875 39.988281 13.59375 39.988281 13.46875 C 39.988281 13.210938 40.007812 13.050781 40.039062 12.984375 C 40.070312 12.917969 40.160156 12.882812 40.308594 12.882812 Z M 36.597656 14.277344 C 36.597656 13.726562 36.414062 13.449219 36.046875 13.449219 C 35.894531 13.449219 35.761719 13.515625 35.652344 13.65625 C 35.542969 13.792969 35.488281 13.960938 35.488281 14.160156 L 35.488281 22.175781 C 35.488281 22.445312 35.542969 22.652344 35.652344 22.789062 C 35.761719 22.929688 35.890625 23 36.042969 23 C 36.210938 23 36.34375 22.921875 36.445312 22.765625 C 36.546875 22.613281 36.597656 22.4375 36.597656 22.25 Z M 36.0625 12.703125 C 36.730469 12.703125 37.304688 12.921875 37.792969 13.359375 C 38.28125 13.796875 38.679688 14.417969 38.988281 15.222656 C 39.296875 16.027344 39.453125 17.0625 39.453125 18.324219 C 39.453125 19.839844 39.152344 21.117188 38.550781 22.160156 C 37.949219 23.203125 37.101562 23.722656 36.007812 23.722656 C 34.96875 23.722656 34.148438 23.214844 33.550781 22.195312 C 32.949219 21.175781 32.652344 19.863281 32.652344 18.25 C 32.652344 16.597656 32.957031 15.261719 33.574219 14.238281 C 34.1875 13.214844 35.015625 12.703125 36.0625 12.703125 Z M 24.570312 13.675781 L 24.570312 22.875 L 24.929688 22.875 C 25.183594 22.875 25.371094 22.769531 25.488281 22.5625 C 25.605469 22.359375 25.664062 21.992188 25.664062 21.464844 L 25.664062 14.675781 C 25.664062 14.378906 25.59375 14.140625 25.445312 13.953125 C 25.300781 13.765625 25.09375 13.675781 24.828125 13.675781 Z M 22.035156 22.128906 L 22.035156 14.085938 C 22.023438 13.996094 21.941406 13.929688 21.789062 13.886719 C 21.671875 13.851562 21.59375 13.800781 21.554688 13.730469 C 21.511719 13.664062 21.492188 13.515625 21.492188 13.289062 C 21.492188 13.125 21.519531 13.015625 21.578125 12.964844 C 21.640625 12.910156 21.789062 12.882812 22.035156 12.882812 L 25.296875 12.882812 C 26.226562 12.882812 27 13.304688 27.609375 14.140625 C 28.21875 14.976562 28.523438 16.367188 28.523438 18.308594 C 28.523438 20.082031 28.230469 21.40625 27.640625 22.285156 C 27.050781 23.164062 26.269531 23.601562 25.296875 23.601562 L 21.703125 23.601562 C 21.601562 23.601562 21.535156 23.582031 21.496094 23.535156 C 21.457031 23.488281 21.4375 23.382812 21.4375 23.226562 C 21.4375 23.035156 21.445312 22.914062 21.457031 22.867188 C 21.472656 22.816406 21.535156 22.761719 21.65625 22.699219 C 21.910156 22.570312 22.035156 22.382812 22.035156 22.128906 Z M 18.945312 22.851562 L 19.332031 22.851562 C 19.53125 22.851562 19.679688 22.777344 19.777344 22.621094 C 19.871094 22.464844 19.996094 22.105469 20.148438 21.542969 C 20.203125 21.328125 20.269531 21.195312 20.347656 21.148438 C 20.425781 21.101562 20.554688 21.078125 20.742188 21.078125 C 20.945312 21.078125 21.078125 21.097656 21.136719 21.128906 C 21.195312 21.164062 21.226562 21.222656 21.226562 21.3125 C 21.226562 21.375 21.214844 21.472656 21.191406 21.609375 L 20.953125 23.199219 C 20.925781 23.363281 20.890625 23.472656 20.847656 23.523438 C 20.804688 23.578125 20.71875 23.601562 20.585938 23.601562 L 16.105469 23.601562 C 15.914062 23.601562 15.820312 23.488281 15.820312 23.257812 C 15.820312 23.082031 15.832031 22.96875 15.855469 22.917969 C 15.882812 22.867188 15.9375 22.828125 16.015625 22.800781 C 16.277344 22.71875 16.40625 22.488281 16.40625 22.101562 L 16.40625 14.210938 C 16.40625 14.046875 16.324219 13.929688 16.160156 13.859375 C 16.019531 13.804688 15.933594 13.738281 15.902344 13.667969 C 15.871094 13.597656 15.855469 13.480469 15.855469 13.316406 C 15.855469 13.121094 15.867188 13 15.894531 12.953125 C 15.921875 12.90625 15.996094 12.882812 16.113281 12.882812 L 19.25 12.882812 C 19.371094 12.882812 19.449219 12.910156 19.492188 12.96875 C 19.535156 13.023438 19.558594 13.171875 19.558594 13.414062 C 19.558594 13.5625 19.542969 13.660156 19.511719 13.710938 C 19.484375 13.761719 19.40625 13.808594 19.285156 13.847656 C 19.058594 13.921875 18.945312 14.070312 18.945312 14.285156 Z M 12.421875 14.277344 C 12.421875 13.726562 12.238281 13.449219 11.871094 13.449219 C 11.714844 13.449219 11.585938 13.515625 11.476562 13.65625 C 11.367188 13.792969 11.3125 13.960938 11.3125 14.160156 L 11.3125 22.175781 C 11.3125 22.445312 11.367188 22.652344 11.476562 22.789062 C 11.585938 22.929688 11.714844 23 11.863281 23 C 12.03125 23 12.167969 22.921875 12.269531 22.765625 C 12.371094 22.613281 12.421875 22.4375 12.421875 22.25 Z M 11.882812 12.703125 C 12.550781 12.703125 13.128906 12.921875 13.617188 13.359375 C 14.105469 13.796875 14.503906 14.417969 14.8125 15.222656 C 15.121094 16.027344 15.273438 17.0625 15.273438 18.324219 C 15.273438 19.839844 14.972656 21.117188 14.375 22.160156 C 13.773438 23.203125 12.925781 23.722656 11.828125 23.722656 C 10.789062 23.722656 9.972656 23.214844 9.371094 22.195312 C 8.773438 21.175781 8.472656 19.863281 8.472656 18.25 C 8.472656 16.597656 8.78125 15.261719 9.394531 14.238281 C 10.011719 13.214844 10.839844 12.703125 11.882812 12.703125 Z M 6.261719 13.167969 C 6.289062 13.148438 6.363281 13.046875 6.492188 12.871094 C 6.574219 12.753906 6.683594 12.699219 6.820312 12.699219 C 6.851562 12.699219 6.976562 12.714844 7.199219 12.746094 C 7.246094 12.789062 7.28125 12.882812 7.300781 13.023438 L 7.671875 15.273438 C 7.6875 15.394531 7.699219 15.464844 7.699219 15.488281 C 7.699219 15.570312 7.671875 15.628906 7.625 15.652344 C 7.578125 15.679688 7.453125 15.695312 7.246094 15.695312 C 7.015625 15.695312 6.867188 15.664062 6.796875 15.605469 C 6.730469 15.550781 6.601562 15.3125 6.410156 14.890625 C 6.007812 14 5.644531 13.554688 5.328125 13.554688 C 5.101562 13.554688 4.988281 13.710938 4.988281 14.019531 C 4.988281 14.40625 5.332031 15.164062 6.015625 16.292969 C 6.800781 17.59375 7.3125 18.535156 7.550781 19.117188 C 7.789062 19.699219 7.910156 20.351562 7.910156 21.074219 C 7.910156 21.925781 7.703125 22.582031 7.289062 23.039062 C 6.875 23.496094 6.410156 23.722656 5.894531 23.722656 C 5.566406 23.722656 5.25 23.632812 4.945312 23.449219 C 4.828125 23.378906 4.734375 23.34375 4.667969 23.34375 C 4.609375 23.34375 4.5625 23.386719 4.523438 23.472656 C 4.453125 23.640625 4.273438 23.722656 3.992188 23.722656 C 3.882812 23.722656 3.8125 23.707031 3.773438 23.671875 C 3.734375 23.640625 3.707031 23.550781 3.6875 23.410156 L 3.347656 21.199219 C 3.300781 20.914062 3.277344 20.765625 3.277344 20.746094 C 3.277344 20.621094 3.398438 20.554688 3.640625 20.554688 C 3.964844 20.554688 4.160156 20.597656 4.21875 20.679688 C 4.277344 20.765625 4.359375 20.957031 4.46875 21.257812 C 4.871094 22.335938 5.269531 22.875 5.675781 22.875 C 5.824219 22.875 5.945312 22.820312 6.039062 22.714844 C 6.132812 22.605469 6.179688 22.476562 6.179688 22.316406 C 6.179688 22.035156 6.074219 21.707031 5.871094 21.320312 C 5.664062 20.9375 5.410156 20.511719 5.109375 20.042969 C 4.394531 18.917969 3.886719 18.019531 3.589844 17.351562 C 3.289062 16.679688 3.140625 15.996094 3.140625 15.296875 C 3.140625 14.507812 3.320312 13.878906 3.671875 13.410156 C 4.027344 12.941406 4.460938 12.703125 4.972656 12.703125 C 5.328125 12.703125 5.757812 12.859375 6.261719 13.167969 Z M 53.148438 24.914062 C 53.148438 25.089844 53 25.234375 52.820312 25.234375 L 2.6875 25.234375 C 2.503906 25.234375 2.355469 25.089844 2.355469 24.914062 L 2.355469 11.632812 C 2.355469 11.453125 2.503906 11.308594 2.6875 11.308594 L 52.820312 11.308594 C 53 11.308594 53.148438 11.453125 53.148438 11.632812 Z M 53.046875 10.8125 L 2.457031 10.8125 C 2.121094 10.8125 1.847656 11.078125 1.847656 11.40625 L 1.847656 25.136719 C 1.847656 25.46875 2.121094 25.734375 2.457031 25.734375 L 53.046875 25.734375 C 53.386719 25.734375 53.660156 25.46875 53.660156 25.136719 L 53.660156 11.40625 C 53.660156 11.078125 53.386719 10.8125 53.046875 10.8125 Z M 54.21875 25.289062 C 54.21875 25.785156 53.804688 26.1875 53.292969 26.1875 L 2.210938 26.1875 C 1.703125 26.1875 1.289062 25.785156 1.289062 25.289062 L 1.289062 11.257812 C 1.289062 10.761719 1.703125 10.359375 2.210938 10.359375 L 53.292969 10.359375 C 53.804688 10.359375 54.21875 10.761719 54.21875 11.257812 Z M 53.746094 9.136719 L 1.757812 9.136719 C 0.808594 9.136719 0.0351562 9.890625 0.0351562 10.816406 L 0.0351562 25.730469 C 0.0351562 26.65625 0.808594 27.410156 1.757812 27.410156 L 53.746094 27.410156 C 54.699219 27.410156 55.46875 26.65625 55.46875 25.730469 L 55.46875 10.816406 C 55.46875 9.890625 54.699219 9.136719 53.746094 9.136719 "/>
</g>
</g>
</svg>
